<svg width="39" height="39" xmlns="http://www.w3.org/2000/svg">
    <g fill-rule="nonzero" fill="none">
        <path d="M11.285 26.78c4.333 4.333 11.358 4.333 15.691 0l7.841-7.84 3.444 3.443v8.226a7.652 7.652 0 0 1-7.652 7.652H7.652A7.652 7.652 0 0 1 0 30.609v-8.226l3.443-3.444 7.842 7.841z" fill="#00C00A"/>
        <path d="M38.26 22.383 26.977 11.098c-4.333-4.333-11.358-4.333-15.691 0L0 22.383V7.653A7.652 7.652 0 0 1 7.652 0H30.61a7.652 7.652 0 0 1 7.652 7.652v14.73z" fill="#445CF1"/>
        <path d="m26.976 11.098 7.841 7.841-7.84 7.841c-4.334 4.333-11.36 4.333-15.692 0l-7.842-7.84 7.842-7.842c4.333-4.333 11.358-4.333 15.691 0z" fill="#FFF"/>
        <path d="m21.507 20.739 3.676 2.064a7.078 7.078 0 1 1-.146-7.575l-3.695 2.074a2.87 2.87 0 1 0 .165 3.437z" fill="#000"/>
    </g>
</svg>
