<?xml version="1.0" encoding="UTF-8" standalone="no"?>
<!-- Created with Inkscape (http://www.inkscape.org/) -->

<svg
   width="512"
   height="512"
   viewBox="0 0 135.46667 135.46667"
   version="1.1"
   id="svg5"
   sodipodi:docname="그리기.svg"
   inkscape:version="1.1 (c4e8f9e, 2021-05-24)"
   inkscape:export-filename="/Users/chris/그리기.png"
   inkscape:export-xdpi="96"
   inkscape:export-ydpi="96"
   xmlns:inkscape="http://www.inkscape.org/namespaces/inkscape"
   xmlns:sodipodi="http://sodipodi.sourceforge.net/DTD/sodipodi-0.dtd"
   xmlns="http://www.w3.org/2000/svg"
   xmlns:svg="http://www.w3.org/2000/svg">
  <sodipodi:namedview
     id="namedview7"
     pagecolor="#ffffff"
     bordercolor="#666666"
     borderopacity="1.0"
     inkscape:pageshadow="2"
     inkscape:pageopacity="0.0"
     inkscape:pagecheckerboard="0"
     inkscape:document-units="px"
     showgrid="false"
     inkscape:zoom="1.2782552"
     inkscape:cx="81.360905"
     inkscape:cy="264.03178"
     inkscape:window-width="1573"
     inkscape:window-height="881"
     inkscape:window-x="801"
     inkscape:window-y="400"
     inkscape:window-maximized="0"
     inkscape:current-layer="layer1" />
  <defs
     id="defs2" />
  <g
     inkscape:label="레이어 1"
     inkscape:groupmode="layer"
     id="layer1">
    <circle
       style="fill:none;fill-rule:evenodd;stroke:none;stroke-width:0.321218;stroke-opacity:1"
       id="path31"
       cx="67.733337"
       cy="67.733337"
       r="63.339394" />
    <circle
       style="fill:none;stroke:none;stroke-width:0.361823;stroke-opacity:1"
       id="path1066"
       cx="67.733337"
       cy="67.733337"
       r="58.027424" />
    <rect
       style="fill:#FFBB11;fill-opacity:1;stroke:#FFBB11;stroke-width:0.403862;stroke-opacity:1"
       id="rect1977"
       width="23.206251"
       height="49.825111"
       x="43.729561"
       y="47.826931"
       ry="6.0268884" />
    <rect
       style="fill:#FFBB11;fill-opacity:1;stroke:#FFBB11;stroke-width:0.403862;stroke-opacity:1"
       id="rect1977-6"
       width="23.206251"
       height="49.825111"
       x="69.215729"
       y="47.826931"
       ry="6.0268884" />
    <path
       style="fill:#FFBB11;fill-opacity:1;stroke:none;stroke-width:0.782316;stroke-opacity:1"
       d="M 228.04523,492.74514 C 135.71919,481.74499 57.262339,417.14397 29.091678,328.92769 6.4343146,250.09705 20.167118,170.18421 70.110098,106.78619 77.602466,97.399017 98.261732,76.873967 107.79086,69.350221 163.78432,25.140468 235.92209,8.1525771 305.46403,22.799714 c 55.67304,11.726029 106.40848,44.111242 140.92334,89.953546 63.19954,83.94102 63.93282,200.01251 1.79465,284.07726 -40.0099,54.12812 -98.83069,88.22968 -165.67116,96.04843 -12.4959,1.46173 -41.67577,1.39004 -54.46563,-0.13381 z m 59.8472,-18.61793 c 64.12388,-10.1566 117.53396,-44.36248 152.7594,-97.83302 6.91511,-10.49681 17.83239,-32.06739 22.018,-43.50359 5.46945,-14.94403 9.62864,-31.81662 11.93545,-48.41859 2.08731,-15.02234 1.87363,-44.48038 -0.4313,-59.45605 -3.06773,-19.93192 -6.87935,-34.06564 -13.92446,-51.63288 C 434.62995,109.3998 379.26662,60.568758 312.5354,42.997671 282.85327,35.18203 252.60344,33.728779 223.4709,38.079611 208.98246,40.243404 194.77036,43.842753 181.04187,48.808983 143.46129,62.403616 109.50462,86.240892 83.423392,118.91209 15.172807,208.5555 25.646093,335.91146 101.03866,412.45718 c 35.3314,34.98434 78.78395,56.02604 128.96236,62.44946 11.44293,1.46482 46.721,0.98985 57.89141,-0.77943 z"
       id="path2594"
       transform="scale(0.26458334)"
       sodipodi:nodetypes="sccsssssssssssssssccss" />
    <path
       style="fill:#FFBB11;fill-opacity:1;stroke:none;stroke-width:0.208882;stroke-opacity:1"
       d="m 63.04282,120.54038 c -0.287212,-0.0415 -1.368182,-0.17675 -2.402155,-0.30059 -9.247135,-1.10754 -18.918472,-5.32857 -26.528143,-11.57815 -2.656143,-2.1814 -6.671034,-6.33765 -8.584389,-8.886622 C 20.596302,93.204831 17.26939,85.755451 15.719771,77.856214 15.453819,76.500514 15.240218,75.131566 15.079838,73.751536 14.627049,69.855414 14.776306,62.9509 15.39106,59.354645 17.234639,48.569871 21.979503,39.035086 29.377075,31.249788 34.693948,25.654245 42.272299,20.67183 49.489464,18.026822 c 15.829404,-5.801295 33.539286,-3.657909 47.651735,5.767179 4.191651,2.799422 9.261981,7.514081 12.309741,11.446267 7.93824,10.241803 11.95859,23.221722 11.08023,35.773222 -0.92366,13.198923 -6.20823,24.911883 -15.38975,34.11056 -8.590174,8.60621 -19.35285,13.82334 -31.444286,15.24238 -2.321574,0.27246 -9.195432,0.38469 -10.654314,0.17395 z m 9.773513,-4.89221 c 9.055508,-0.98336 17.945754,-4.66185 25.078027,-10.37642 9.64178,-7.725269 15.85495,-18.875133 17.60731,-31.597328 0.40045,-2.907329 0.33861,-9.568393 -0.11736,-12.637316 -1.22844,-8.268398 -4.32182,-15.678831 -9.3656,-22.435987 C 104.099,36.029277 99.434987,31.365301 96.86312,29.445604 83.869079,19.746568 67.759569,17.079844 52.494227,22.100902 34.545012,28.004735 21.722429,44.004871 19.7938,62.904781 c -0.06281,0.615504 -0.108097,1.322973 -0.136943,2.087636 -0.132212,3.504769 0.08099,8.211051 0.535754,10.770817 0.890402,5.01182 2.073982,8.658016 4.305575,13.263961 3.723779,7.685777 9.633996,14.336635 17.01969,19.152515 6.09852,3.97657 12.931966,6.46145 20.271645,7.37149 2.735273,0.33913 8.342688,0.38845 11.026812,0.097 z"
       id="path2633"
       sodipodi:nodetypes="sssssssssssssssssssssssssssss" />
    <rect
       style="fill:#FFBB11;fill-opacity:1;stroke:none;stroke-width:0.356282;stroke-opacity:1"
       id="rect3019"
       width="21.152359"
       height="12.400717"
       x="56.958572"
       y="33.937912"
       ry="5.2260418"
       rx="4.7607212" />
    <rect
       style="fill:#FFBB11;fill-opacity:1;stroke:none;stroke-width:0.317539;stroke-opacity:1"
       id="rect3229"
       width="12.855619"
       height="5.1747017"
       x="31.75"
       y="54.504166"
       ry="1.8817097" />
    <ellipse
       style="opacity:0.5;fill:none;fill-opacity:1;stroke:none;stroke-width:0.264583;stroke-opacity:1"
       id="path7378"
       cx="-25.563004"
       cy="64.166245"
       rx="24.735052"
       ry="16.973007" />
    <rect
       style="fill:#FFBB11;fill-opacity:1;stroke:none;stroke-width:0.31754;stroke-opacity:1"
       id="rect3229-5"
       width="12.855674"
       height="5.1747017"
       x="31.75"
       y="68.262505"
       ry="1.8817097" />
    <rect
       style="fill:#FFBB11;fill-opacity:1;stroke:none;stroke-width:0.31754;stroke-opacity:1"
       id="rect3229-7"
       width="12.855674"
       height="5.1747017"
       x="31.850502"
       y="82.020836"
       ry="1.8817097" />
    <rect
       style="fill:#FFBB11;fill-opacity:1;stroke:none;stroke-width:0.317539;stroke-opacity:1"
       id="rect3229-0"
       width="12.855619"
       height="5.1747017"
       x="91.54583"
       y="54.504169"
       ry="1.8817097" />
    <rect
       style="fill:#FFBB11;fill-opacity:1;stroke:none;stroke-width:0.31754;stroke-opacity:1"
       id="rect3229-5-1"
       width="12.855674"
       height="5.1747017"
       x="91.54583"
       y="68.262505"
       ry="1.8817097" />
    <rect
       style="fill:#FFBB11;fill-opacity:1;stroke:none;stroke-width:0.31754;stroke-opacity:1"
       id="rect3229-7-8"
       width="12.855674"
       height="5.1747017"
       x="91.646324"
       y="82.020836"
       ry="1.8817097" />
  </g>
</svg>
